<svg width="30" height="30" viewBox="0 0 30 30" fill="none" xmlns="http://www.w3.org/2000/svg">
<circle cx="15" cy="15" r="14.5" stroke="url(#paint0_linear_135_2690)"/>
<g clip-path="url(#clip0_135_2690)">
<path d="M18.9575 15.5138C18.7635 15.2688 18.819 15.1598 18.9575 14.9408C18.96 14.9383 20.5615 12.7253 20.7265 11.9748L20.7275 11.9743C20.8095 11.7008 20.7275 11.4998 20.331 11.4998H19.019C18.685 11.4998 18.531 11.6723 18.4485 11.8653C18.4485 11.8653 17.7805 13.4643 16.8355 14.5008C16.5305 14.8003 16.3895 14.8963 16.223 14.8963C16.141 14.8963 16.0135 14.8003 16.0135 14.5268V11.9743C16.0135 11.6463 15.92 11.4998 15.6435 11.4998H13.5805C13.371 11.4998 13.2465 11.6528 13.2465 11.7953C13.2465 12.1063 13.719 12.1778 13.768 13.0528V14.9513C13.768 15.3673 13.6925 15.4438 13.525 15.4438C13.079 15.4438 11.9965 13.8383 11.355 12.0008C11.2255 11.6443 11.099 11.5003 10.7625 11.5003H9.45C9.0755 11.5003 9 11.6728 9 11.8658C9 12.2068 9.446 13.9023 11.074 16.1423C12.159 17.6713 13.687 18.4998 15.077 18.4998C15.9125 18.4998 16.0145 18.3158 16.0145 17.9993C16.0145 16.5383 15.939 16.4003 16.3575 16.4003C16.5515 16.4003 16.8855 16.4963 17.6655 17.2338C18.557 18.1083 18.7035 18.4998 19.2025 18.4998H20.5145C20.8885 18.4998 21.078 18.3158 20.969 17.9528C20.7195 17.1893 19.0335 15.6188 18.9575 15.5138Z" fill="url(#paint1_linear_135_2690)"/>
</g>
<defs>
<linearGradient id="paint0_linear_135_2690" x1="0" y1="0" x2="34.9017" y2="7.6567" gradientUnits="userSpaceOnUse">
<stop stop-color="#FBFF32"/>
<stop offset="1" stop-color="#FF961C"/>
</linearGradient>
<linearGradient id="paint1_linear_135_2690" x1="9" y1="11.4998" x2="21.8191" y2="16.3206" gradientUnits="userSpaceOnUse">
<stop stop-color="#FBFF32"/>
<stop offset="1" stop-color="#FF961C"/>
</linearGradient>
<clipPath id="clip0_135_2690">
<rect width="12" height="12" fill="white" transform="translate(9 9)"/>
</clipPath>
</defs>
</svg>
