<svg width="30" height="30" viewBox="0 0 30 30" fill="none" xmlns="http://www.w3.org/2000/svg">
<circle cx="15" cy="15" r="14.5" stroke="url(#paint0_linear_135_2678)"/>
<mask id="path-2-outside-1_135_2678" maskUnits="userSpaceOnUse" x="10.4" y="8" width="9" height="14" fill="black">
<rect fill="white" x="10.4" y="8" width="9" height="14"/>
<path d="M16.8733 15.5281H16.0577C14.7768 15.5281 13.5347 14.7602 13.5347 12.8401C13.5347 10.8398 14.6991 10.0239 15.883 10.0239H16.8733V15.5281H16.8733ZM18.1542 9H15.9412C13.7677 9 11.9237 10.36 11.9237 13.0001C11.9237 14.5841 12.8169 15.7521 14.4079 16.3281L11.4389 20.7441C11.3419 20.8883 11.4389 21 11.5937 21H12.9717C13.0881 21 13.1659 20.9681 13.2046 20.8883L15.9024 16.552H16.8732V20.8883C16.8732 20.9361 16.9315 21 17.0086 21H18.2124C18.3288 21 18.3677 20.952 18.3677 20.8723V9.16013C18.3677 9.04786 18.29 9 18.1541 9"/>
</mask>
<path d="M16.8733 15.5281H16.0577C14.7768 15.5281 13.5347 14.7602 13.5347 12.8401C13.5347 10.8398 14.6991 10.0239 15.883 10.0239H16.8733V15.5281H16.8733ZM18.1542 9H15.9412C13.7677 9 11.9237 10.36 11.9237 13.0001C11.9237 14.5841 12.8169 15.7521 14.4079 16.3281L11.4389 20.7441C11.3419 20.8883 11.4389 21 11.5937 21H12.9717C13.0881 21 13.1659 20.9681 13.2046 20.8883L15.9024 16.552H16.8732V20.8883C16.8732 20.9361 16.9315 21 17.0086 21H18.2124C18.3288 21 18.3677 20.952 18.3677 20.8723V9.16013C18.3677 9.04786 18.29 9 18.1541 9" fill="url(#paint1_linear_135_2678)"/>
<path d="M16.8733 10.0239H17.3733V9.52392H16.8733V10.0239ZM16.8733 15.5281H16.3733V16.0281H16.8733V15.5281ZM14.4079 16.3281L14.8228 16.607L15.18 16.0758L14.5781 15.8579L14.4079 16.3281ZM11.4389 20.7441L11.8537 21.0233L11.8538 21.0231L11.4389 20.7441ZM13.2046 20.8883L12.7801 20.6241L12.7662 20.6464L12.7548 20.6699L13.2046 20.8883ZM15.9024 16.552V16.052H15.6246L15.4778 16.2878L15.9024 16.552ZM16.8732 16.552H17.3732V16.052H16.8732V16.552ZM18.3677 9.16013H18.8677H18.3677ZM16.8733 15.0281H16.0577V16.0281H16.8733V15.0281ZM16.0577 15.0281C15.5124 15.0281 15.0123 14.8648 14.654 14.5358C14.3042 14.2148 14.0347 13.6861 14.0347 12.8401H13.0347C13.0347 13.9141 13.3862 14.7295 13.9777 15.2725C14.5607 15.8075 15.3222 16.0281 16.0577 16.0281V15.0281ZM14.0347 12.8401C14.0347 11.9382 14.2951 11.3698 14.6243 11.0295C14.9553 10.6872 15.4053 10.5239 15.883 10.5239V9.52392C15.1768 9.52392 14.4526 9.76857 13.9055 10.3343C13.3565 10.9019 13.0347 11.7417 13.0347 12.8401H14.0347ZM15.883 10.5239H16.8733V9.52392H15.883V10.5239ZM16.3733 10.0239V15.5281H17.3733V10.0239H16.3733ZM16.8733 16.0281H16.8733V15.0281H16.8733V16.0281ZM18.1542 8.5H15.9412V9.5H18.1542V8.5ZM15.9412 8.5C14.7529 8.5 13.6207 8.87223 12.78 9.64103C11.9322 10.4163 11.4237 11.5561 11.4237 13.0001H12.4237C12.4237 11.8041 12.8372 10.9438 13.4548 10.379C14.0795 9.80778 14.9561 9.5 15.9412 9.5V8.5ZM11.4237 13.0001C11.4237 13.8904 11.6764 14.6861 12.1694 15.3424C12.6604 15.996 13.3687 16.4836 14.2377 16.7982L14.5781 15.8579C13.8561 15.5965 13.3223 15.2121 12.9689 14.7418C12.6176 14.2741 12.4237 13.6939 12.4237 13.0001H11.4237ZM13.993 16.0491L11.0239 20.4652L11.8538 21.0231L14.8228 16.607L13.993 16.0491ZM11.024 20.465C10.8958 20.6556 10.8306 20.9477 11.0093 21.2087C11.164 21.4345 11.4126 21.5 11.5937 21.5V20.5C11.62 20.5 11.7426 20.5097 11.8344 20.6436C11.8831 20.7147 11.9047 20.7992 11.8992 20.8794C11.894 20.9548 11.8668 21.0038 11.8537 21.0233L11.024 20.465ZM11.5937 21.5H12.9717V20.5H11.5937V21.5ZM12.9717 21.5C13.1706 21.5 13.4932 21.4388 13.6544 21.1066L12.7548 20.6699C12.7686 20.6415 12.7894 20.6105 12.8189 20.5817C12.8482 20.553 12.8795 20.5332 12.9074 20.5202C12.9587 20.4965 12.9901 20.5 12.9717 20.5V21.5ZM13.6291 21.1524L16.3269 16.8161L15.4778 16.2878L12.7801 20.6241L13.6291 21.1524ZM15.9024 17.052H16.8732V16.052H15.9024V17.052ZM16.3732 16.552V20.8883H17.3732V16.552H16.3732ZM16.3732 20.8883C16.3732 21.0975 16.4854 21.2502 16.576 21.3323C16.6794 21.4261 16.8295 21.5 17.0086 21.5V20.5C17.1105 20.5 17.193 20.5419 17.248 20.5918C17.2902 20.6301 17.3732 20.7269 17.3732 20.8883H16.3732ZM17.0086 21.5H18.2124V20.5H17.0086V21.5ZM18.2124 21.5C18.3243 21.5 18.5115 21.4794 18.6691 21.3369C18.8388 21.1834 18.8677 20.9874 18.8677 20.8723H17.8677C17.8677 20.837 17.8772 20.7048 17.9984 20.5952C18.0529 20.5459 18.1089 20.5218 18.1479 20.5106C18.1848 20.5001 18.2093 20.5 18.2124 20.5V21.5ZM18.8677 20.8723V9.16013H17.8677V20.8723H18.8677ZM18.8677 9.16013C18.8677 8.9743 18.7942 8.76797 18.6024 8.63104C18.4423 8.51673 18.2652 8.5 18.1541 8.5V9.5C18.1789 9.5 18.1086 9.5072 18.0213 9.44489C17.9718 9.40953 17.9283 9.35938 17.8999 9.29824C17.8728 9.23992 17.8677 9.18941 17.8677 9.16013H18.8677Z" fill="url(#paint2_linear_135_2678)" mask="url(#path-2-outside-1_135_2678)"/>
<defs>
<linearGradient id="paint0_linear_135_2678" x1="0" y1="0" x2="34.9017" y2="7.6567" gradientUnits="userSpaceOnUse">
<stop stop-color="#FBFF32"/>
<stop offset="1" stop-color="#FF961C"/>
</linearGradient>
<linearGradient id="paint1_linear_135_2678" x1="11.4" y1="9" x2="19.7606" y2="10.065" gradientUnits="userSpaceOnUse">
<stop stop-color="#FBFF32"/>
<stop offset="1" stop-color="#FF961C"/>
</linearGradient>
<linearGradient id="paint2_linear_135_2678" x1="11.4" y1="9" x2="19.7606" y2="10.065" gradientUnits="userSpaceOnUse">
<stop stop-color="#FBFF32"/>
<stop offset="1" stop-color="#FF961C"/>
</linearGradient>
</defs>
</svg>
