<svg width="174" height="499" viewBox="0 0 174 499" fill="none" xmlns="http://www.w3.org/2000/svg">
<g clip-path="url(#clip0_163_2)">
<path d="M2.82108 476.389C65.7123 482.984 117.683 478.911 118.902 467.291C120.12 455.672 70.1245 440.907 7.23329 434.312C-55.658 427.717 -107.629 431.79 -108.848 443.41C-110.066 455.029 -60.0702 469.794 2.82108 476.389Z" fill="#F2F2F2"/>
<path d="M108.173 224.08L114.595 244.446L113.021 271.918L95.9179 271.837C95.9179 271.837 97.7169 265.801 85.5834 256.93C80.7608 239.621 74.7255 224.5 74.7255 224.5L108.173 224.08Z" fill="#A9DBD0"/>
<path d="M82.2192 136.197C82.2192 136.197 89.8476 136.611 94.9 147.223C96.8423 151.302 97.6616 159.114 98.2114 163.6L108.895 228.109C109.711 233.036 106.956 237.86 102.303 239.652C95.6913 242.197 76.2917 232.77 75.8521 225.684L82.2192 136.197Z" fill="#ADDBD3"/>
<path d="M15.5231 124.142C15.5231 124.142 8.26422 121.758 -0.288547 129.813C-3.5762 132.908 -7.16983 139.891 -9.30754 143.872L-42.6338 200.11C-45.1795 204.406 -44.3598 209.902 -40.6726 213.261C-35.4332 218.033 -12.4604 215.597 -9.4835 209.153L10.1447 172.543L15.5231 124.142Z" fill="#ADDBD3"/>
<path d="M31.7757 456.181C32.0359 459.299 31.6057 462.965 28.9701 464.643C27.2271 465.753 12.7895 465.729 10.4893 462.124C8.22171 458.569 9.30216 454.887 9.73273 452.758C11.7979 442.541 12.0324 435.421 14.0978 425.204C17.7284 425.527 21.0597 426.004 24.6999 425.802C24.9387 429.116 25.0183 431.931 25.3705 435.268C25.7704 439.049 31.4901 452.739 31.7757 456.181Z" fill="#1A2E35"/>
<path fill-rule="evenodd" clip-rule="evenodd" d="M21.9414 275.125C14.6138 287.516 -8.87514 338.734 -17.1227 353L-49.879 426.049C-49.879 426.049 -63.4873 424.09 -68.6036 418.161C-64.5195 399.496 -46.7045 356.297 -41.3755 341.101C-32.1953 314.127 -22.6568 274.599 -17.0155 261.378C-12.7953 251.486 -9.62078 252.75 -4.25287 243.535C22.7099 253.08 26.8839 255.674 26.343 261.424C25.87 266.452 22.1726 275.272 21.9414 275.125Z" fill="#1A2E35"/>
<path fill-rule="evenodd" clip-rule="evenodd" d="M29.4427 251.363C27.3179 283.584 26.0214 309.651 21.9061 343.154L10.0621 437.447C18.001 440.304 30.3812 442.399 32.5937 440.429C40.1706 421.153 44.7036 365.802 49.2627 342.221C56.2242 306.207 63.7127 287.65 59.1958 251.25C54.223 252.814 42.6491 252.421 30.3247 251.434L29.4427 251.363Z" fill="#1A2E35"/>
<path d="M36.6523 131.222C36.6523 131.222 37.111 226.953 52.1507 224.682C67.1907 222.41 67.1971 127.326 67.1971 127.326L61.6208 120.957C61.6208 120.957 64.5756 128.288 58.8302 138.935C58.8302 138.935 42.2479 121.895 37.9555 124.272C33.6624 126.647 36.6523 131.222 36.6523 131.222Z" fill="#1A2E35"/>
<path d="M2.69035 128.256C0.543281 129.589 -1.5919 131.074 -3.00388 133.17C-7.45959 139.78 -6.55145 193.745 -9.4838 209.154L-37.8128 299.628L-47.5159 312.809C-32.5017 321.143 -2.24993 350.413 14.9094 350.885C17.9678 336.274 22.7346 330.011 27.7782 315.963C30.9528 307.119 51.8901 235.21 51.1311 203.498C51.0867 201.588 49.0641 144.462 45.2139 131.723C42.7021 123.415 42.6432 115.595 34.4463 117.692C26.6695 119.681 9.50164 124.026 2.69035 128.256Z" fill="#ADDBD3"/>
<path d="M67.1971 127.326C73.9232 129.613 84.494 135.235 86.6583 141.279C88.0377 145.129 87.8241 149.344 87.5938 153.431C86.1399 179.188 78.3074 203.872 75.3797 229.505C72.861 251.551 71.9413 303.502 67.539 332.072C67.185 334.369 71.8606 338.404 71.8923 340.323C52.7455 348.568 39.5581 351.054 25.7476 351.207C27.3805 343.291 24.5943 337.742 27.7782 315.963C30.8875 294.689 38.7705 254.593 39.908 246.779C47.4249 222.447 54.5701 198.459 58.3521 178.043C61.6353 160.318 63.5514 148.298 67.1971 127.326Z" fill="#ADDBD3"/>
<path d="M33.8381 123.579C32.9474 128.293 41.7693 129.666 49.4654 132.642C53.4973 134.201 58.8302 138.935 58.8302 138.935C58.8302 138.935 58.9126 138.578 61.6352 131.387L73.4236 101.862L43.5174 83.4567L34.0517 122.651C33.9739 122.959 33.8971 123.268 33.8381 123.579Z" fill="#FFC09D"/>
<path fill-rule="evenodd" clip-rule="evenodd" d="M80.2425 163.974L64.5051 167.473L73.4334 169.51C73.4334 169.51 63.9549 201.663 48.2411 222.834L65.8923 136.206C66.4367 133.535 66.9123 131.713 67.3955 130.495C68.6847 127.246 71.0383 127.801 73.0381 129.903C79.3967 136.586 82.0248 161.79 80.2425 163.974Z" fill="#73B5B3"/>
<path fill-rule="evenodd" clip-rule="evenodd" d="M24.5735 157.549L42.5894 164.112L32.3846 164.634C32.3846 164.634 36.8166 188.386 51.3099 211.986L47.4305 134.965C47.2928 132.224 44.924 128.292 44.5576 127.005C43.5807 123.572 34.7555 114.527 31.8097 115.357C17.1154 119.5 22.8991 155.089 24.5735 157.549Z" fill="#73B5B3"/>
<path d="M42.8338 143.49C46.1107 138.503 47.4258 138.328 51.8739 134.355C54.1182 137.352 56.3619 140.347 58.6053 143.343C59.66 140.738 60.8998 138.208 62.312 135.779C64.8181 139.03 66.8637 142.636 68.9075 146.196C71.2602 141.465 72.5544 136.908 71.4974 130.793C70.4085 124.491 69.8713 122.768 65.4972 121.714C62.3694 126.775 59.6272 131.758 56.8938 136.476C52.8014 132.788 41.9139 116.979 37.0644 110.176C37.0644 110.176 30.3424 115.217 29.6464 118.929C28.8076 123.402 39.7554 138.443 42.8338 143.49Z" fill="#385A64"/>
<path d="M49.0135 88.6119C46.422 102.624 52.3682 117.646 66.0128 120.289L73.9256 100.126L74.6493 97.5664L49.0135 88.6119Z" fill="#FF9A6C"/>
<path fill-rule="evenodd" clip-rule="evenodd" d="M104.69 88.6167C104.69 88.6167 92.2278 94.433 88.6259 80.2631C88.6259 80.2631 77.9426 72.3464 91.4308 65.1242C91.4308 65.1242 93.5857 47.1548 104.265 57.0672C104.265 57.0672 112.048 48.8065 117.897 58.0078C117.897 58.0078 128.351 61.0834 122.368 72.4523C122.368 72.4523 126.485 85.4266 116.045 85.5316C116.045 85.5316 111.314 91.7832 104.69 88.6167Z" fill="#A5BEC5"/>
<path fill-rule="evenodd" clip-rule="evenodd" d="M121.924 63.2544C121.924 63.2544 128.34 70.9559 122.018 84.035C115.695 97.1143 144.781 73.9346 121.924 63.2544Z" fill="#A5BEC5"/>
<path fill-rule="evenodd" clip-rule="evenodd" d="M104.69 88.6169C104.69 88.6169 111.784 87.3815 114.382 82.9764C114.382 82.9764 121.977 78.651 121.091 73.0738C121.091 73.0738 124.412 64.9742 117.996 60.0297C117.996 60.0297 127.39 56.3019 126.73 65.1033C126.069 73.9047 124.744 90.878 120.197 88.9982C115.65 87.1184 111.584 96.2714 104.69 88.6169Z" fill="#A5BEC5"/>
<path d="M98.5646 103.968C93.1345 111.067 85.036 116.304 76.4362 116.515C64.5151 116.833 54.0608 107.576 48.574 96.5046C45.4337 90.1951 43.7585 83.0101 43.6294 75.8769C43.277 60.3632 46.9021 38.1032 61.8204 32.0511C79.8693 24.7252 104.61 30.0741 110.556 52.0271C114.644 67.1514 107.751 91.979 98.5646 103.968Z" fill="#FFC09D"/>
<path fill-rule="evenodd" clip-rule="evenodd" d="M102.347 88.0518C107.116 88.5519 110.646 92.1515 110.233 96.0919C109.82 100.032 105.619 102.821 100.851 102.321C96.0826 101.821 92.552 98.2216 92.9652 94.2812C93.3783 90.3408 97.5789 87.5518 102.347 88.0518Z" fill="#FF9D6B" fill-opacity="0.431373"/>
<path fill-rule="evenodd" clip-rule="evenodd" d="M64.599 77.9447C69.3673 78.4447 72.898 82.0443 72.4848 85.9848C72.0716 89.9252 67.871 92.7142 63.1027 92.2142C58.3343 91.7141 54.8037 88.1145 55.2169 84.1741C55.63 80.2336 59.8306 77.4447 64.599 77.9447Z" fill="#FF9D6B" fill-opacity="0.431373"/>
<path d="M96.2826 85.4401C97.8738 85.7458 99.4157 84.6206 99.7266 82.9268C100.037 81.233 98.9995 79.612 97.4083 79.3062C95.8171 79.0004 94.2752 80.1257 93.9643 81.8195C93.6535 83.5133 94.6914 85.1343 96.2826 85.4401Z" fill="#29383E"/>
<path d="M46.1177 64.8406C42.9326 62.7134 38.2678 61.5396 34.7888 62.7382C31.8913 63.7352 30.4222 66.1053 29.8225 68.4859C29.0475 71.5574 29.4488 74.9447 31.4264 77.9705C33.4041 80.9967 37.0502 83.6048 41.3143 84.6231C45.5781 85.6422 50.3551 84.8935 52.8694 82.5203C57.6933 77.9652 51.84 68.6636 46.1177 64.8406Z" fill="#FFC09D"/>
<path d="M43.0126 69.3663C45.4889 72.2584 45.9329 76.7717 43.3967 77.0606C41.9951 77.2206 41.8301 75.2962 41.5515 73.2293C40.9238 68.5774 38.2647 67.6995 38.3439 67.0588C38.4285 66.3692 40.8015 66.7845 43.0126 69.3663Z" fill="#FF9A6C"/>
<path fill-rule="evenodd" clip-rule="evenodd" d="M69.0238 96.8298C71.1786 101.229 71.6151 100.699 76.5952 102.906C71.4366 104.638 66.9287 100.384 69.0238 96.8298Z" fill="#29383E"/>
<path d="M111.028 87.6169L110.364 87.4894L110.394 87.264L110.402 87.0369L110.388 86.8078L110.351 86.5755L110.294 86.3413L110.214 86.1039L110.113 85.8645L109.99 85.6239L109.845 85.3822L109.679 85.14L109.492 84.8984L109.285 84.6584L109.058 84.4195L108.811 84.1834L108.546 83.9505L108.262 83.7209L107.96 83.4957L107.641 83.2753L107.306 83.0602L106.955 82.851L106.588 82.6478L106.206 82.4518L105.81 82.2627L105.401 82.0817L104.978 81.9089L104.543 81.7448L104.096 81.5899L103.638 81.4445L103.169 81.3092L102.69 81.1847L102.201 81.071L101.703 80.9686L101.832 80.2688L102.346 80.3745L102.851 80.4921L103.346 80.6209L103.832 80.7611L104.306 80.9114L104.769 81.0719L105.221 81.2426L105.66 81.4219L106.087 81.6106L106.499 81.8078L106.899 82.0128L107.283 82.2258L107.653 82.4461L108.007 82.6733L108.346 82.907L108.667 83.1472L108.972 83.3934L109.258 83.6452L109.527 83.9024L109.776 84.1645L110.006 84.4316L110.217 84.7036L110.406 84.9798L110.574 85.2605L110.72 85.5453L110.842 85.834L110.941 86.1265L111.013 86.4218L111.059 86.7195L111.078 87.0188L111.068 87.3186L111.028 87.6169ZM99.8533 91.0505L99.9818 90.3506L100.482 90.4401L100.978 90.5157L101.468 90.5773L101.953 90.6252L102.432 90.6598L102.903 90.6814L103.367 90.6901L103.822 90.686L104.268 90.6692L104.703 90.6401L105.129 90.5989L105.543 90.546L105.944 90.4814L106.333 90.4055L106.708 90.3182L107.069 90.2204L107.415 90.1119L107.745 89.9934L108.058 89.8648L108.355 89.727L108.633 89.5799L108.893 89.4243L109.133 89.2602L109.354 89.0886L109.554 88.9098L109.733 88.7246L109.892 88.5331L110.029 88.3362L110.144 88.1332L110.239 87.9246L110.312 87.7105L110.364 87.4894L111.028 87.6169L110.959 87.9098L110.863 88.1927L110.739 88.4648L110.591 88.7249L110.418 88.9734L110.223 89.2093L110.007 89.433L109.77 89.6445L109.514 89.8434L109.239 90.0308L108.947 90.206L108.638 90.3696L108.312 90.5211L107.971 90.6612L107.614 90.7892L107.243 90.9053L106.858 91.0098L106.46 91.1021L106.05 91.1827L105.627 91.2505L105.193 91.3061L104.748 91.349L104.294 91.3793L103.83 91.3969L103.357 91.4012L102.875 91.3923L102.387 91.37L101.891 91.3342L101.389 91.2845L100.882 91.2205L100.37 91.1427L99.8533 91.0505ZM90.6569 83.7024L91.3209 83.8299L91.2911 84.0552L91.2831 84.2823L91.2973 84.5115L91.3336 84.7438L91.3912 84.978L91.4712 85.2154L91.5723 85.4548L91.6956 85.6954L91.8403 85.9371L92.0062 86.1792L92.193 86.4209L92.4003 86.6609L92.6275 86.8998L92.8739 87.1358L93.1395 87.3688L93.4233 87.5984L93.725 87.8236L94.0437 88.0439L94.3793 88.2591L94.7306 88.4683L95.0974 88.6714L95.4789 88.8675L95.875 89.0565L96.2843 89.2376L96.707 89.4103L97.1418 89.5744L97.5889 89.7294L98.0471 89.8748L98.516 90.01L98.9952 90.1346L99.484 90.2483L99.9818 90.3506L99.8533 91.0505L99.3393 90.9448L98.8342 90.8272L98.339 90.6984L97.8535 90.5581L97.3792 90.4078L96.9156 90.2474L96.4643 90.0767L96.0252 89.8974L95.5985 89.7087L95.1856 89.5114L94.7863 89.3065L94.4018 89.0935L94.0319 88.8732L93.6778 88.6459L93.3396 88.4123L93.0181 88.1721L92.7135 87.9259L92.427 87.6741L92.1581 87.4169L91.9087 87.1548L91.6786 86.8877L91.4682 86.6157L91.2787 86.3395L91.1107 86.0588L90.9648 85.774L90.8426 85.4852L90.7443 85.1928L90.6718 84.8975L90.6257 84.5998L90.6071 84.3005L90.6174 84.0007L90.6569 83.7024ZM101.832 80.2688L101.703 80.9686L101.203 80.8792L100.707 80.8036L100.217 80.742L99.7321 80.6941L99.2532 80.6592L98.7819 80.6376L98.3182 80.629L97.8633 80.6333L97.4175 80.6498L96.9816 80.6789L96.5566 80.7202L96.1428 80.7731L95.7412 80.8379L95.3523 80.9138L94.9773 81.0008L94.6163 81.0986L94.2706 81.2072L93.9403 81.3259L93.627 81.4542L93.3306 81.5924L93.0522 81.7393L92.7925 81.895L92.5519 82.0591L92.3314 82.2307L92.1313 82.4095L91.9519 82.5947L91.7936 82.7862L91.6565 82.9834L91.5409 83.1858L91.4462 83.3947L91.3727 83.6087L91.3209 83.8299L90.6569 83.7024L90.7259 83.4095L90.8227 83.1266L90.9459 82.8547L91.0944 82.5941L91.2673 82.3459L91.4619 82.11L91.6785 81.8862L91.9152 81.6748L92.1712 81.4759L92.4457 81.2885L92.738 81.1132L93.0476 80.9497L93.3732 80.798L93.7145 80.6581L94.0709 80.5298L94.442 80.4137L94.8267 80.3092L95.2248 80.2166L95.6355 80.1366L96.0578 80.0685L96.4922 80.013L96.9367 79.97L97.3914 79.9397L97.8554 79.9224L98.3286 79.9178L98.8099 79.9267L99.2987 79.949L99.7941 79.9851L100.296 80.0348L100.803 80.0987L101.315 80.1766L101.832 80.2688Z" fill="#516970"/>
<path fill-rule="evenodd" clip-rule="evenodd" d="M90.531 77.3777C91.8171 83.0388 95.5514 101.673 84.8806 96.7896L88.2936 96.8093C91.2627 96.1448 90.2336 81.7851 90.531 77.3777Z" fill="#29383E"/>
<path d="M72.5349 80.593C74.1261 80.8988 75.6681 79.7736 75.9789 78.0797C76.2898 76.3859 75.2518 74.7649 73.6606 74.4592C72.0694 74.1534 70.5275 75.2786 70.2167 76.9724C69.9058 78.6663 70.9437 80.2872 72.5349 80.593Z" fill="#29383E"/>
<path d="M85.4316 82.6981L84.7677 82.5705L84.7975 82.3452L84.8055 82.1184L84.7913 81.889L84.7549 81.6569L84.6974 81.4224L84.6177 81.1851L84.5162 80.9459L84.393 80.7051L84.2482 80.4633L84.0823 80.2215L83.8955 79.9798L83.688 79.7393L83.4611 79.5007L83.2146 79.2646L82.9491 79.0316L82.6652 78.8023L82.3636 78.5771L82.0448 78.3565L81.7092 78.1414L81.358 77.9321L80.9911 77.7293L80.6097 77.5329L80.2138 77.3442L79.8043 77.1632L79.3816 76.9901L78.9469 76.8263L78.4996 76.6713L78.0414 76.5259L77.5725 76.3907L77.0934 76.2661L76.6045 76.1524L76.1068 76.0501L76.2352 75.3502L76.7493 75.4559L77.2543 75.5735L77.7495 75.7024L78.235 75.8426L78.7093 75.9929L79.1727 76.1533L79.6242 76.3237L80.0634 76.5033L80.4898 76.692L80.903 76.889L81.3022 77.0942L81.6868 77.3069L82.0566 77.5273L82.4108 77.7545L82.749 77.9884L83.0705 78.2286L83.375 78.4745L83.6616 78.7264L83.9305 78.9836L84.1801 79.246L84.4099 79.513L84.6204 79.7845L84.8099 80.061L84.9779 80.3417L85.1237 80.6267L85.2457 80.9152L85.3442 81.2076L85.4167 81.5032L85.4629 81.8006L85.4815 82.1002L85.4712 82.3997L85.4316 82.6981ZM74.2567 86.1316L74.3852 85.4318L74.8854 85.5213L75.3812 85.5969L75.8717 85.6585L76.3565 85.7064L76.8354 85.7413L77.3066 85.7628L77.7703 85.7715L78.2253 85.7672L78.671 85.7506L79.1069 85.7215L79.532 85.6803L79.9457 85.6274L80.3474 85.5625L80.7362 85.4867L81.1113 85.3997L81.4722 85.3018L81.818 85.1933L82.1482 85.0745L82.4615 84.9462L82.758 84.8081L83.0363 84.6611L83.2961 84.5055L83.5366 84.3414L83.7571 84.1698L83.9572 83.991L84.1366 83.8058L84.295 83.6143L84.432 83.417L84.5477 83.2146L84.6423 83.0058L84.7159 82.7917L84.7677 82.5705L85.4316 82.6981L85.3626 82.9909L85.2658 83.2739L85.1426 83.5457L84.9941 83.8064L84.8213 84.0545L84.6267 84.2905L84.4101 84.5142L84.1734 84.7256L83.9174 84.9246L83.6428 85.1119L83.3505 85.2872L83.041 85.4508L82.7153 85.6025L82.3741 85.7423L82.0177 85.8707L81.6465 85.9868L81.2619 86.0912L80.8637 86.1838L80.453 86.2638L80.0308 86.3319L79.5964 86.3875L79.1519 86.4304L78.6971 86.4608L78.2331 86.4781L77.76 86.4826L77.2786 86.4737L76.7898 86.4514L76.2945 86.4153L75.7928 86.3657L75.2853 86.3017L74.7732 86.2239L74.2567 86.1316ZM65.0604 78.7835L65.7244 78.9111L65.6946 79.1364L65.6865 79.3635L65.7008 79.5927L65.7371 79.825L65.7947 80.0592L65.8746 80.2966L65.9758 80.5359L66.099 80.7765L66.2438 81.0183L66.4097 81.2604L66.5965 81.502L66.8037 81.742L67.0309 81.9809L67.2774 82.217L67.543 82.45L67.8268 82.6795L68.1284 82.9048L68.4472 83.1251L68.7828 83.3402L69.134 83.5495L69.5008 83.7526L69.8823 83.9487L70.2785 84.1377L70.6878 84.3187L71.1105 84.4915L71.5453 84.6556L71.9924 84.8106L72.4506 84.956L72.9195 85.0912L73.3986 85.2157L73.8875 85.3295L74.3852 85.4318L74.2567 86.1316L73.7427 86.026L73.2377 85.9084L72.7425 85.7795L72.257 85.6393L71.7827 85.489L71.3191 85.3286L70.8678 85.1579L70.4286 84.9786L70.002 84.7898L69.5891 84.5926L69.1898 84.3877L68.8052 84.1747L68.4354 83.9544L68.0812 83.7271L67.743 83.4935L67.4215 83.2533L67.117 83.0071L66.8304 82.7553L66.5616 82.4981L66.3122 82.2359L66.0821 81.9688L65.8717 81.6969L65.6821 81.4206L65.5142 81.1399L65.3683 80.8552L65.2461 80.5664L65.1478 80.274L65.0753 79.9787L65.0292 79.681L65.0105 79.3816L65.0208 79.0819L65.0604 78.7835ZM76.2352 75.3502L76.1068 76.0501L75.6066 75.9606L75.1108 75.885L74.6203 75.8234L74.1355 75.7755L73.6566 75.7406L73.1854 75.7191L72.7217 75.7104L72.2667 75.7147L71.8209 75.7312L71.3851 75.7604L70.96 75.8016L70.5462 75.8545L70.1446 75.9194L69.7558 75.9952L69.3807 76.0822L69.0198 76.18L68.674 76.2886L68.3438 76.4074L68.0305 76.5357L67.734 76.6738L67.4557 76.8208L67.1959 76.9767L66.9554 77.1403L66.7349 77.3121L66.5348 77.4906L66.3554 77.6759L66.1971 77.8674L66.06 78.0646L65.9443 78.267L65.8497 78.4759L65.7761 78.6899L65.7244 78.9111L65.0604 78.7835L65.1294 78.4907L65.2262 78.2077L65.3494 77.9359L65.4979 77.6752L65.6708 77.4271L65.8654 77.1911L66.082 76.9674L66.3186 76.7562L66.5747 76.557L66.8492 76.3697L67.1415 76.1947L67.451 76.0311L67.7767 75.8794L68.118 75.7396L68.4743 75.6112L68.8455 75.4951L69.2301 75.3907L69.6282 75.2981L70.0389 75.218L70.4612 75.15L70.8956 75.0944L71.3401 75.0515L71.7948 75.0211L72.2589 75.0038L72.732 74.9992L73.2134 75.0082L73.7022 75.0304L74.1975 75.0666L74.6992 75.1162L75.2066 75.1802L75.7188 75.258L76.2352 75.3502Z" fill="#516970"/>
<path d="M85.0536 83.6242C84.9458 83.7853 84.7345 83.8253 84.5823 83.7136C84.43 83.602 84.3944 83.3799 84.5023 83.2188L85.0536 83.6242ZM92.2471 83.8127L91.8163 84.3655L91.6602 84.2394L91.4883 84.116L91.3022 83.9954L91.102 83.8787L90.8904 83.7667L90.6676 83.6594L90.4354 83.5575L90.1946 83.4615L89.9466 83.3717L89.6924 83.2884L89.4335 83.2119L89.1711 83.1428L88.9066 83.0813L88.6407 83.0277L88.3744 82.9826L88.1098 82.9457L87.847 82.9179L87.5882 82.8991L87.3346 82.8894L87.0869 82.8894L86.8467 82.8988L86.6154 82.9188L86.3938 82.9482L86.1837 82.9878L85.9867 83.0371L85.8034 83.0962L85.6355 83.1644L85.4846 83.2414L85.3505 83.3263L85.2343 83.4184L85.1357 83.5177L85.0536 83.6242L84.5023 83.2188L84.6407 83.0389L84.7998 82.8789L84.9761 82.7384L85.1676 82.6166L85.3722 82.5125L85.5887 82.4242L85.8158 82.351L86.0529 82.2914L86.299 82.2453L86.5526 82.2113L86.8136 82.189L87.0812 82.1782L87.354 82.1781L87.6311 82.1887L87.9117 82.2093L88.1951 82.2393L88.4798 82.2788L88.7649 82.3274L89.0497 82.3846L89.3331 82.4503L89.6136 82.5245L89.8908 82.6061L90.1636 82.6956L90.4306 82.7922L90.6909 82.8962L90.9441 83.0072L91.1883 83.1248L91.4232 83.2495L91.6475 83.3805L91.8602 83.5179L92.0605 83.662L92.2471 83.8127ZM92.2471 83.8127C92.3907 83.9361 92.4108 84.1602 92.2921 84.3127C92.1734 84.4651 91.9598 84.4889 91.8163 84.3655L92.2471 83.8127Z" fill="#516970"/>
<path d="M65.5671 78.5409C65.7268 78.6405 65.7782 78.8588 65.6819 79.0278C65.5855 79.1968 65.3774 79.2533 65.2177 79.1537L65.5671 78.5409ZM46.3953 66.5604L46.2039 65.8806L46.5063 65.9L46.7281 65.9967L47.0093 66.1463L47.3604 66.3489L47.7797 66.6025L48.2628 66.9037L48.8052 67.2485L49.4015 67.6334L50.0464 68.0547L50.7339 68.5081L51.4592 68.9896L52.2166 69.4954L53.0006 70.0217L53.8056 70.5641L54.6262 71.1187L55.4568 71.6818L56.2915 72.2493L57.1255 72.8167L57.9525 73.3805L58.7676 73.9363L59.5646 74.4809L60.3387 75.0096L61.0838 75.5184L61.7943 76.0032L62.4651 76.4605L63.0903 76.8859L63.6641 77.2754L64.1815 77.6249L64.6365 77.9306L65.0234 78.1881L65.3357 78.3932L65.5671 78.5409L65.2177 79.1537L64.9762 78.9997L64.6589 78.7913L64.2691 78.5318L63.8126 78.2249L63.2937 77.8747L62.7188 77.4846L62.0931 77.0586L61.4223 76.6013L60.7114 76.116L59.9663 75.6072L59.1922 75.0784L58.3952 74.5344L57.5806 73.9787L56.7535 73.4149L55.9201 72.8475L55.0859 72.2805L54.2562 71.7181L53.4361 71.1642L52.6322 70.6218L51.8492 70.0967L51.0933 69.5916L50.3695 69.1114L49.684 68.6592L49.0416 68.2398L48.4488 67.8569L47.9109 67.5146L47.4339 67.2174L47.0241 66.9695L46.6876 66.7755L46.4353 66.6412L46.2873 66.5753L46.3953 66.5604ZM46.3953 66.5604C46.2165 66.6178 46.0283 66.5122 45.9755 66.3246C45.9226 66.137 46.0251 65.938 46.2039 65.8806L46.3953 66.5604Z" fill="#516970"/>
<path d="M113.237 300.642L121.019 316.355C121.451 317.227 122.487 317.61 123.38 317.23C124.286 316.843 124.727 315.81 124.38 314.887L121.417 307.005L113.237 300.642Z" fill="#B33226"/>
<path d="M89.0776 260.947L101.113 285.479C101.113 285.479 99.2544 291.617 103.924 299.135C106.842 303.835 107.961 307.27 108.388 309.186C108.611 310.182 109.505 310.881 110.521 310.813L110.532 310.812C111.605 310.739 112.446 309.851 112.438 308.773C112.419 306.685 112.16 303.145 110.874 299.441L125.514 315.143C126.142 315.851 127.245 315.855 127.877 315.15C128.324 314.652 128.411 313.928 128.097 313.339L117.537 287.019C117.537 287.019 115.749 256.408 115.302 252.287L89.0776 260.947Z" fill="#FF4736"/>
<path fill-rule="evenodd" clip-rule="evenodd" d="M50.1116 137.962L53.8391 149.911L60.3744 150.063L63.0711 136.838L59.4516 135.353L57.0147 138.343L52.7258 135.493L50.1116 137.962Z" fill="white"/>
<path fill-rule="evenodd" clip-rule="evenodd" d="M54.5751 145.981L48.8825 161.066L51.0701 208.975L61.3662 161.265L59.4565 146.361L54.5751 145.981Z" fill="white"/>
<path fill-rule="evenodd" clip-rule="evenodd" d="M48.9031 219.603C46.2476 239.238 41.9699 256.408 38.6216 275.721C36.506 287.925 33.2054 297.303 30.8348 309.206C31.6795 297.73 35.2123 286.842 36.8853 275.449C39.3891 258.397 44.6937 236.61 48.9031 219.603Z" fill="#73B5B3"/>
<path fill-rule="evenodd" clip-rule="evenodd" d="M68.5806 92.6456C66.5261 96.9813 74.2875 98.8461 74.2875 98.8461C74.2875 98.8461 75.5782 101.976 80.2735 101.746C80.2735 101.746 83.7503 105.4 84.9778 99.0006C86.1886 92.6856 70.6352 88.3098 68.5806 92.6456Z" fill="white"/>
<path fill-rule="evenodd" clip-rule="evenodd" d="M68.5806 92.6458C68.5806 92.6458 68.5146 98.3498 76.0059 96.0905C75.5359 99.1113 76.9816 101.387 80.5969 100.211C80.5969 100.211 83.4083 102.414 84.0937 101.621C84.779 100.827 85.5102 105.101 82.9695 104.865C80.4288 104.628 63.5115 98.0647 68.5806 92.6458Z" fill="#A5BEC5"/>
<path fill-rule="evenodd" clip-rule="evenodd" d="M55.6625 32.6371C55.6625 32.6371 70.5666 28.8762 73.1152 43.5624C73.1152 43.5624 84.4601 53.1784 68.226 58.1714C68.226 58.1714 63.7665 75.7026 52.648 64.1016C52.648 64.1016 42.8263 71.0561 37.1552 60.9485C37.1552 60.9485 25.5351 56.1874 33.6424 45.8473C33.6424 45.8473 30.3714 32.2666 42.328 33.8604C42.328 33.8604 48.4347 28.4087 55.6625 32.6371Z" fill="white"/>
<path fill-rule="evenodd" clip-rule="evenodd" d="M42.328 33.8604C42.328 33.8604 33.9819 36.2021 37.4871 44.9239C37.4871 44.9239 30.9524 48.9499 39.7488 52.9038C39.7488 52.9038 41.6907 60.5829 49.0267 62.2285C50.5206 62.5635 54.3681 59.5879 56.8639 57.9108C57.3217 57.6035 54.1929 62.4774 54.8226 62.511C54.9287 62.5165 57.3381 62.3835 61.5641 60.9925C63.0909 60.49 65.3978 56.0643 66.786 55.4148C67.4718 55.0938 69.6518 56.3701 71.8214 55.4059C74.6235 54.1608 77.4884 50.6861 77.9132 50.9636C80.1949 52.4539 66.5886 71.1639 66.7287 71.1649C66.7287 71.1649 37.9303 79.3778 26.9677 61.6394C16.0049 43.901 40.4695 26.6843 43.3625 29.4534C46.2554 32.2224 61.6061 26.2944 65.5808 30.2019C69.5556 34.1095 67.8081 27.1143 67.8081 27.1143C67.8081 27.1143 67.9014 27.1324 55.7337 25.4832C43.5661 23.834 44.0277 31.8449 42.328 33.8604Z" fill="#A5BEC5"/>
<path d="M96.1669 39.9743C97.2489 40.1822 98.2482 39.6846 98.399 38.863C98.5498 38.0413 97.7949 37.2067 96.713 36.9988C95.631 36.7909 94.6316 37.2884 94.4809 38.1101C94.3301 38.9317 95.0849 39.7663 96.1669 39.9743Z" fill="white"/>
<path fill-rule="evenodd" clip-rule="evenodd" d="M83.8284 71.0876C83.8284 71.0876 70.0059 69.6889 68.9389 68.3523C67.8718 67.0157 82.0242 62.0642 83.8284 71.0876Z" fill="white"/>
<path fill-rule="evenodd" clip-rule="evenodd" d="M90.9335 72.83C90.9335 72.83 104.31 76.6579 105.779 75.8087C107.247 74.9592 95.8139 65.0911 90.9335 72.83Z" fill="white"/>
<path fill-rule="evenodd" clip-rule="evenodd" d="M70.3382 71.7647C70.3382 71.7647 78.7287 69.6044 80.2313 74.4202L74.7318 73.0176L70.3382 71.7647Z" fill="#29383E"/>
<path fill-rule="evenodd" clip-rule="evenodd" d="M101.978 78.4733C101.978 78.4733 94.9245 73.3455 91.8169 77.2753L97.4391 78.01L101.978 78.4733Z" fill="#29383E"/>
<path fill-rule="evenodd" clip-rule="evenodd" d="M85.7732 146.281C85.7732 146.281 96.2299 194.483 80.9043 222.24L85.5834 256.93L74.7255 224.5C74.7255 224.5 78.9179 182.594 85.7732 146.281Z" fill="#80BCBB"/>
<path fill-rule="evenodd" clip-rule="evenodd" d="M27.3335 180.475L6.67518 174.998C6.67518 174.998 -1.32329 196.154 9.69403 201.329C24.5798 205.61 27.3335 180.475 27.3335 180.475Z" fill="#80BCBB"/>
</g>
<defs>
<clipPath id="clip0_163_2">
<rect width="247.414" height="474.72" fill="white" transform="translate(-72.0999 0.343018) rotate(5.98619)"/>
</clipPath>
</defs>
</svg>
